<svg width="18" height="18" viewBox="0 0 18 18" fill="none" xmlns="http://www.w3.org/2000/svg">
<path d="M16.5279 4.78194H13.2335C13.2335 3.72491 12.817 2.71117 12.0756 1.96373C11.3342 1.21629 10.3287 0.796387 9.28023 0.796387C8.23176 0.796387 7.22623 1.21629 6.48486 1.96373C5.74348 2.71117 5.32697 3.72491 5.32697 4.78194H2.0326C1.68311 4.78194 1.34793 4.92191 1.1008 5.17106C0.853678 5.4202 0.714844 5.75812 0.714844 6.11046V16.0743C0.714844 16.4267 0.853678 16.7646 1.1008 17.0138C1.34793 17.2629 1.68311 17.4029 2.0326 17.4029H16.5279C16.8774 17.4029 17.2125 17.2629 17.4597 17.0138C17.7068 16.7646 17.8456 16.4267 17.8456 16.0743V6.11046C17.8456 5.75812 17.7068 5.4202 17.4597 5.17106C17.2125 4.92191 16.8774 4.78194 16.5279 4.78194ZM9.28023 2.12491C9.97921 2.12491 10.6496 2.40484 11.1438 2.90313C11.6381 3.40142 11.9157 4.07725 11.9157 4.78194H6.64473C6.64473 4.07725 6.92239 3.40142 7.41665 2.90313C7.9109 2.40484 8.58125 2.12491 9.28023 2.12491ZM16.5279 16.0743H2.0326V6.11046H5.32697V7.43898C5.32697 7.61515 5.39639 7.78411 5.51995 7.90868C5.64352 8.03325 5.81111 8.10324 5.98585 8.10324C6.16059 8.10324 6.32818 8.03325 6.45175 7.90868C6.57531 7.78411 6.64473 7.61515 6.64473 7.43898V6.11046H11.9157V7.43898C11.9157 7.61515 11.9851 7.78411 12.1087 7.90868C12.2323 8.03325 12.3999 8.10324 12.5746 8.10324C12.7494 8.10324 12.9169 8.03325 13.0405 7.90868C13.1641 7.78411 13.2335 7.61515 13.2335 7.43898V6.11046H16.5279V16.0743Z" fill="black"/>
</svg>
