<svg width="20" height="18" viewBox="0 0 20 18" fill="none" xmlns="http://www.w3.org/2000/svg">
<path d="M8.99135 2.33892C8.0611 1.35125 6.7994 0.796387 5.48383 0.796387C4.16825 0.796387 2.90656 1.35125 1.9763 2.33892C1.04605 3.32659 0.523438 4.66615 0.523438 6.06292C0.523438 7.45969 1.04605 8.79926 1.9763 9.78693L9.32729 17.1872L9.78226 17.6478L17.575 9.80097C18.5068 8.81516 19.0317 7.47672 19.034 6.08008C19.0364 4.68344 18.5161 3.34301 17.5876 2.35366C16.6591 1.36432 15.3984 0.807108 14.083 0.804606C12.7675 0.802105 11.505 1.35452 10.5732 2.34032L9.78226 3.18005L8.99135 2.33892ZM2.89947 8.7801C2.22183 8.05511 1.84267 7.07438 1.84515 6.053C1.84763 5.03162 2.23155 4.05297 2.9127 3.33171C3.59479 2.60755 4.51989 2.20073 5.48449 2.20073C6.44909 2.20073 7.37419 2.60755 8.05628 3.33171L9.78226 5.16562L11.5083 3.33171C12.1905 2.60734 13.1158 2.2004 14.0807 2.2004C15.0456 2.2004 15.9709 2.60734 16.6532 3.33171C17.3354 4.05607 17.7187 5.03852 17.7187 6.06292C17.7187 7.08733 17.3354 8.06978 16.6532 8.79414L9.78226 15.7099L2.89947 8.7801Z" fill="black"/>
</svg>
