<svg width="17" height="18" viewBox="0 0 17 18" fill="none" xmlns="http://www.w3.org/2000/svg">
<path d="M8.65578 0.796387C9.74217 0.796079 10.8 1.11802 11.6742 1.71496C12.5483 2.31189 13.1926 3.15239 13.5125 4.11307C13.8324 5.07376 13.8111 6.10405 13.4517 7.05271C13.0923 8.00137 12.4138 8.81845 11.5156 9.38401C13.0745 9.9131 14.4266 10.8618 15.3979 12.108C16.3692 13.3542 16.9152 14.8409 16.9655 16.3767C16.9703 16.4619 16.9565 16.5472 16.9251 16.6275C16.8938 16.7077 16.8454 16.7814 16.7828 16.8441C16.7203 16.9069 16.6448 16.9574 16.5609 16.9928C16.4769 17.0282 16.3862 17.0477 16.294 17.0502C16.2018 17.0527 16.11 17.0381 16.0239 17.0074C15.9379 16.9766 15.8593 16.9302 15.7929 16.871C15.7265 16.8118 15.6735 16.7409 15.6371 16.6624C15.6007 16.584 15.5816 16.4996 15.5809 16.4143C15.5259 14.7488 14.7722 13.1685 13.4796 12.0084C12.187 10.8483 10.457 10.1995 8.65624 10.1995C6.8555 10.1995 5.12551 10.8483 3.83289 12.0084C2.54027 13.1685 1.7866 14.7488 1.73159 16.4143C1.72608 16.5843 1.6478 16.7453 1.51398 16.862C1.38016 16.9786 1.20176 17.0412 1.01802 17.0361C0.834281 17.031 0.660257 16.9586 0.534232 16.8348C0.408207 16.7109 0.340503 16.5458 0.346015 16.3758C0.396587 14.8402 0.94264 13.3537 1.9139 12.1077C2.88516 10.8616 4.23717 9.91304 5.79595 9.38401C4.89781 8.81845 4.21924 8.00137 3.85984 7.05271C3.50044 6.10405 3.47914 5.07376 3.79907 4.11307C4.11899 3.15239 4.76329 2.31189 5.6374 1.71496C6.51152 1.11802 7.5694 0.796079 8.65578 0.796387ZM4.96091 5.49749C4.96091 6.40426 5.35019 7.27389 6.04311 7.91507C6.73604 8.55625 7.67584 8.91647 8.65578 8.91647C9.63572 8.91647 10.5755 8.55625 11.2685 7.91507C11.9614 7.27389 12.3507 6.40426 12.3507 5.49749C12.3507 4.59072 11.9614 3.72108 11.2685 3.0799C10.5755 2.43872 9.63572 2.0785 8.65578 2.0785C7.67584 2.0785 6.73604 2.43872 6.04311 3.0799C5.35019 3.72108 4.96091 4.59072 4.96091 5.49749Z" fill="black"/>
</svg>
