<svg width="28" height="29" viewBox="0 0 28 29" fill="none" xmlns="http://www.w3.org/2000/svg">
<path d="M27.7791 26.8081L20.7322 19.7103C22.7417 17.3826 23.7755 14.36 23.6155 11.2796C23.4556 8.19919 22.1145 5.30167 19.8749 3.19781C17.6353 1.09394 14.6721 -0.0519081 11.6101 0.00180668C8.54803 0.0555215 5.6263 1.3046 3.46078 3.48574C1.29526 5.66689 0.0551239 8.60969 0.00179374 11.6938C-0.0515364 14.778 1.0861 17.7625 3.1749 20.0182C5.2637 22.274 8.14047 23.6248 11.1988 23.7859C14.2571 23.947 17.2581 22.9058 19.5691 20.8817L26.6161 27.9795C26.7721 28.1259 26.9784 28.2056 27.1916 28.2019C27.4048 28.1981 27.6082 28.1111 27.759 27.9592C27.9097 27.8074 27.9961 27.6025 27.9999 27.3877C28.0036 27.173 27.9245 26.9652 27.7791 26.8081ZM1.68693 11.9217C1.68693 9.89988 2.28218 7.92344 3.39741 6.24234C4.51265 4.56124 6.09777 3.25098 7.95233 2.47725C9.80689 1.70352 11.8476 1.50108 13.8164 1.89553C15.7852 2.28997 17.5936 3.26358 19.0131 4.69324C20.4325 6.1229 21.3991 7.94439 21.7907 9.92739C22.1823 11.9104 21.9814 13.9658 21.2132 15.8337C20.445 17.7017 19.1441 19.2982 17.475 20.4215C15.806 21.5448 13.8437 22.1443 11.8363 22.1443C9.14555 22.1411 6.56591 21.063 4.66323 19.1466C2.76056 17.2302 1.6902 14.6319 1.68693 11.9217Z" fill="black"/>
<path d="M27.7791 26.8081L20.7322 19.7103C22.7417 17.3826 23.7755 14.36 23.6155 11.2796C23.4556 8.19919 22.1145 5.30167 19.8749 3.19781C17.6353 1.09394 14.6721 -0.0519081 11.6101 0.00180668C8.54803 0.0555215 5.6263 1.3046 3.46078 3.48574C1.29526 5.66689 0.0551239 8.60969 0.00179374 11.6938C-0.0515364 14.778 1.0861 17.7625 3.1749 20.0182C5.2637 22.274 8.14047 23.6248 11.1988 23.7859C14.2571 23.947 17.2581 22.9058 19.5691 20.8817L26.6161 27.9795C26.7721 28.1259 26.9784 28.2056 27.1916 28.2019C27.4048 28.1981 27.6082 28.1111 27.759 27.9592C27.9097 27.8074 27.9961 27.6025 27.9999 27.3877C28.0036 27.173 27.9245 26.9652 27.7791 26.8081ZM1.68693 11.9217C1.68693 9.89988 2.28218 7.92344 3.39741 6.24234C4.51265 4.56124 6.09777 3.25098 7.95233 2.47725C9.80689 1.70352 11.8476 1.50108 13.8164 1.89553C15.7852 2.28997 17.5936 3.26358 19.0131 4.69324C20.4325 6.1229 21.3991 7.94439 21.7907 9.92739C22.1823 11.9104 21.9814 13.9658 21.2132 15.8337C20.445 17.7017 19.1441 19.2982 17.475 20.4215C15.806 21.5448 13.8437 22.1443 11.8363 22.1443C9.14555 22.1411 6.56591 21.063 4.66323 19.1466C2.76056 17.2302 1.6902 14.6319 1.68693 11.9217Z" stroke="black"/>
</svg>
